<svg width="199" height="59" viewBox="0 0 199 59" fill="none" xmlns="http://www.w3.org/2000/svg">
<g clip-path="url(#clip0_203_11449)">
<path d="M16.2167 41.0956L16.2126 42.4892L16.1695 57.2297L2.78244 49.499L2.8261 33.3648L3.95005 34.0144L16.094 41.0242L16.2167 41.0956Z" fill="#C5C5FF" stroke="#111111" stroke-width="6" stroke-linecap="round" stroke-linejoin="round"/>
<path d="M29.5206 33.3648L29.477 49.499L16.1695 57.2297L16.2126 42.4892L16.2167 41.0956L28.4044 34.0144L29.5206 33.3648Z" fill="#C5C5FF" stroke="#111111" stroke-width="6" stroke-linecap="round" stroke-linejoin="round"/>
<path d="M29.5206 33.3651L28.4044 34.0147L16.2167 41.0959L16.094 41.0245L3.95005 34.0147L2.8261 33.3651L16.1335 25.6349L29.5206 33.3651Z" fill="#C5C5FF" stroke="#111111" stroke-width="6" stroke-linecap="round" stroke-linejoin="round"/>
<path d="M42.9137 41.0956L42.9095 42.4892L42.8665 57.2297L29.4794 49.499L29.523 33.3648L30.647 34.0144L42.7909 41.0242L42.9137 41.0956Z" fill="#C5C5FF" stroke="#111111" stroke-width="6" stroke-linecap="round" stroke-linejoin="round"/>
<path d="M56.2176 33.3648L56.1739 49.499L42.8665 57.2297L42.9095 42.4892L42.9137 41.0956L55.1013 34.0144L56.2176 33.3648Z" fill="#C5C5FF" stroke="#111111" stroke-width="6" stroke-linecap="round" stroke-linejoin="round"/>
<path d="M56.2176 33.3651L55.1013 34.0147L42.9136 41.0959L42.7909 41.0245L30.647 34.0147L29.523 33.3651L42.8305 25.6349L56.2176 33.3651Z" fill="#C5C5FF" stroke="#111111" stroke-width="6" stroke-linecap="round" stroke-linejoin="round"/>
<path d="M29.5655 17.2307L29.5614 18.6243L29.5177 33.3648L16.1306 25.6346L16.1743 9.5005L17.2982 10.1495L29.4428 17.1599L29.5655 17.2307Z" fill="#C5C5FF" stroke="#111111" stroke-width="6" stroke-linecap="round" stroke-linejoin="round"/>
<path d="M42.8694 9.5005L42.8257 25.6346L29.5177 33.3648L29.5614 18.6243L29.5655 17.2307L41.7531 10.1495L42.8694 9.5005Z" fill="#C5C5FF" stroke="#111111" stroke-width="6" stroke-linecap="round" stroke-linejoin="round"/>
<path d="M42.8694 9.50077L41.7531 10.1498L29.5655 17.231L29.4428 17.1602L17.2982 10.1498L16.1743 9.50077L29.4823 1.77L42.8694 9.50077Z" fill="#C5C5FF" stroke="#111111" stroke-width="6" stroke-linecap="round" stroke-linejoin="round"/>
</g>
<g clip-path="url(#clip1_203_11449)">
<path d="M91.6804 4.88638L84.0612 12.5056L82.3944 14.1653L71.0723 18.0817L80.3507 8.79572L91.6804 4.88638Z" fill="#8686FC" stroke="#111111" stroke-width="4" stroke-linecap="round" stroke-linejoin="round"/>
<path d="M118.434 4.88638L110.814 12.5056L105.053 18.2599L101.351 14.5565L107.104 8.79572L118.434 4.88638Z" fill="#8686FC" stroke="#111111" stroke-width="4" stroke-linecap="round" stroke-linejoin="round"/>
<path d="M95.7768 27.5477L84.4429 31.4523L71.0723 18.0817L82.3944 14.1653L95.7768 27.5477Z" fill="#111111" stroke="#111111" stroke-width="4" stroke-linecap="round" stroke-linejoin="round"/>
<path d="M95.7768 27.5479L82.3944 40.9185L71.0723 44.8349L84.437 31.4585L84.4429 31.4525L95.7768 27.5479Z" fill="#8686FC" stroke="#111111" stroke-width="4" stroke-linecap="round" stroke-linejoin="round"/>
<path d="M91.6804 50.204L80.3507 54.1134L71.0723 44.8344L82.3944 40.918L91.6804 50.204Z" fill="#111111" stroke="#111111" stroke-width="4" stroke-linecap="round" stroke-linejoin="round"/>
<path d="M114.339 27.5453L127.712 40.9183L118.434 50.2043L114.723 46.4944L105.053 36.8237L97.4341 44.4435L91.6805 50.2043L82.3944 40.9183L95.7751 27.5453L82.3944 14.1653L84.0612 12.5056L91.6805 4.88638L105.053 18.2599L110.814 12.5056L118.434 4.88638L127.712 14.1653L114.339 27.5453Z" fill="#C5C5FF" stroke="#111111" stroke-width="4" stroke-linecap="round" stroke-linejoin="round"/>
<path d="M118.434 50.2043L107.104 54.1136L97.4341 44.4435L105.053 36.8237L114.723 46.4944L118.434 50.2043Z" fill="#111111" stroke="#111111" stroke-width="4" stroke-linecap="round" stroke-linejoin="round"/>
</g>
<g clip-path="url(#clip2_203_11449)">
<path d="M195.902 20.6093V30.9013H177.063V49.7405H166.781V30.9013H147.933V20.6093H166.781V1.77H177.063V20.6093H195.902Z" stroke="#111111" stroke-width="6" stroke-linecap="round" stroke-linejoin="round"/>
<path d="M166.781 1.77V20.6093H161.506V9.25946C162.022 8.58332 166.781 1.77 166.781 1.77Z" fill="#8686FC" stroke="#111111" stroke-width="6" stroke-linecap="round" stroke-linejoin="round"/>
<path d="M166.781 30.9013V49.7405L161.506 57.23V38.3907H142.667L147.933 30.9013H166.781Z" fill="#8686FC" stroke="#111111" stroke-width="6" stroke-linecap="round" stroke-linejoin="round"/>
<path d="M177.063 49.7403C177.063 49.7403 172.304 56.8115 171.789 57.2298H161.506L166.781 49.7403H177.063Z" fill="#8686FC" stroke="#111111" stroke-width="6" stroke-linecap="round" stroke-linejoin="round"/>
<path d="M195.902 30.9013L190.628 38.3907H177.063V30.9013H195.902Z" fill="#8686FC" stroke="#111111" stroke-width="6" stroke-linecap="round" stroke-linejoin="round"/>
<path d="M147.932 20.6091V30.9011L142.667 38.3905V28.0986L147.932 20.6091Z" fill="#8686FC" stroke="#111111" stroke-width="6" stroke-linecap="round" stroke-linejoin="round"/>
<path d="M166.781 30.9013L161.506 38.3907" stroke="#111111" stroke-width="6" stroke-linecap="round" stroke-linejoin="round"/>
</g>
<defs>
<clipPath id="clip0_203_11449">
<rect width="59" height="59" fill="white"/>
</clipPath>
<clipPath id="clip1_203_11449">
<rect width="59" height="59" fill="white" transform="translate(69.8923)"/>
</clipPath>
<clipPath id="clip2_203_11449">
<rect width="59" height="59" fill="white" transform="translate(139.785)"/>
</clipPath>
</defs>
</svg>
