<svg width="30" height="24" viewBox="0 0 30 24" fill="none" xmlns="http://www.w3.org/2000/svg">
<g clip-path="url(#clip0_203_11453)">
<path d="M19.6213 14H18.6591L18.3181 13.73C19.7796 12.33 20.5347 10.42 20.1206 8.39C19.5482 5.61 16.7226 3.39 13.3124 3.05C8.16061 2.53 3.82479 6.09 4.45811 10.32C4.87221 13.12 7.576 15.44 10.9618 15.91C13.4342 16.25 15.7605 15.63 17.4656 14.43L17.7944 14.71V15.5L22.9706 19.75C23.4699 20.16 24.2859 20.16 24.7853 19.75C25.2846 19.34 25.2846 18.67 24.7853 18.26L19.6213 14ZM12.3137 14C9.2811 14 6.83307 11.99 6.83307 9.5C6.83307 7.01 9.2811 5 12.3137 5C15.3464 5 17.7944 7.01 17.7944 9.5C17.7944 11.99 15.3464 14 12.3137 14Z" fill="#888888"/>
</g>
<defs>
<clipPath id="clip0_203_11453">
<rect width="29.2302" height="24" fill="white" transform="translate(0.743439)"/>
</clipPath>
</defs>
</svg>
